# xmcd
#
# Track frame offsets: 
#        150
#        14041
#        31406
#        48340
#        64506
#        81563
#        97359
#        113309
#        132762
#
# Disc length: 1940 seconds
#
# Revision: 0
# Processed by: cddbd v1.5.2PL0 Copyright (c) Steve Scherf et al.
# Submitted via: ExactAudioCopy v0.95b3
#
DISCID=75079209
DTITLE=Black Oak Akansas  - 10 Years 
DYEAR=1900
DGENRE=
TTITLE0=BLack Oak Arkansas - When The Band Was Singin' Shakin' All Ove
TTITLE0=r
TTITLE1=BLack Oak Arkansas - Pretty, Pretty
TTITLE2=BLack Oak Arkansas - Can't Blame It On Me
TTITLE3=BLack Oak Arkansas - Television Indecision
TTITLE4=BLack Oak Arkansas - Back It Up
TTITLE5=BLack Oak Arkansas - Bad Boy's Back In School
TTITLE6=BLack Oak Arkansas - Love Comes Easy
TTITLE7=BLack Oak Arkansas - You Can't Keep A Good Man Down
TTITLE8=BLack Oak Arkansas - Fireball
EXTD=
EXTT0=
EXTT1=
EXTT2=
EXTT3=
EXTT4=
EXTT5=
EXTT6=
EXTT7=
EXTT8=
PLAYORDER=
